<?xml version="1.0" standalone="no"?><!DOCTYPE svg PUBLIC "-//W3C//DTD SVG 1.1//EN" "http://www.w3.org/Graphics/SVG/1.1/DTD/svg11.dtd"><svg class="icon" height="512" viewBox="0 0 1024 1024" version="1.1" xmlns="http://www.w3.org/2000/svg"><path d="M91.24412 525.851473c-7.443529 0-14.869662-2.988054-20.322861-8.887414-10.371208-11.221576-9.6815-28.726252 1.540076-39.098483L499.002988 83.60207c10.708899-9.893324 27.2619-9.782807 37.835723 0.258896l415.014108 394.263505c11.078313 10.523681 11.523451 28.036543 0.99977 39.114856-10.519588 11.082406-28.036543 11.525498-39.114856 1.003863L517.520737 141.837402 110.017696 518.502088C104.699574 523.420097 97.962126 525.851473 91.24412 525.851473zM801.37462 945.479669 614.618169 945.479669c-15.278985 0-27.66713-12.388145-27.66713-27.66713l0-214.423581L444.001303 703.388958l0 214.423581c0 15.278985-12.388145 27.66713-27.66713 27.66713L229.577722 945.479669c-15.278985 0-27.66713-12.388145-27.66713-27.66713L201.910593 498.18332c0-15.278985 12.388145-27.66713 27.66713-27.66713 15.278985 0 27.66713 12.388145 27.66713 27.66713l0 391.960043L388.66602 890.143363l0-214.423581c0-15.278985 12.388145-27.66713 27.66713-27.66713l198.285019 0c15.278985 0 27.66713 12.388145 27.66713 27.66713l0 214.423581 131.421168 0L773.706467 498.18332c0-15.278985 12.388145-27.66713 27.66713-27.66713s27.66713 12.388145 27.66713 27.66713l0 419.628196C829.042773 933.090501 816.653605 945.479669 801.37462 945.479669zM932.795788 253.786077c-15.278985 0-27.66713-12.388145-27.66713-27.66713l0-94.53098L789.847076 131.587967c-15.278985 0-27.66713-12.388145-27.66713-27.66713s12.388145-27.66713 27.66713-27.66713l142.949736 0c15.278985 0 27.66713 12.388145 27.66713 27.66713l0 122.199133C960.463941 241.397932 948.074773 253.786077 932.795788 253.786077z" /></svg>