<?xml version="1.0" standalone="no"?>
<!DOCTYPE svg PUBLIC "-//W3C//DTD SVG 20010904//EN"
 "http://www.w3.org/TR/2001/REC-SVG-20010904/DTD/svg10.dtd">
<svg version="1.0" xmlns="http://www.w3.org/2000/svg"
 width="64.000000pt" height="64.000000pt" viewBox="0 0 64.000000 64.000000"
 preserveAspectRatio="xMidYMid meet">
<metadata>
Created by potrace 1.15, written by Peter Selinger 2001-2017
</metadata>
<g transform="translate(0.000000,64.000000) scale(0.100000,-0.100000)"
fill="#000000" stroke="none">
<path d="M190 599 c-60 -27 -117 -83 -146 -144 -32 -67 -33 -179 -3 -245 48
-107 147 -170 266 -170 39 0 84 5 98 10 22 8 32 6 52 -10 18 -14 41 -20 75
-20 41 0 54 5 79 29 24 24 29 38 29 78 0 30 -7 60 -20 81 -16 25 -20 50 -20
115 0 62 -6 93 -21 127 -12 25 -22 60 -23 79 -1 43 -46 82 -74 65 -12 -8 -27
-6 -57 7 -57 26 -175 25 -235 -2z m220 -25 c34 -14 39 -20 34 -37 -15 -46 -34
-84 -48 -97 -19 -15 -21 -40 -4 -40 16 0 48 31 48 47 0 7 7 13 15 13 19 0 55
-71 55 -107 0 -35 -92 -193 -122 -210 -13 -7 -47 -12 -76 -13 -178 -1 -269
206 -148 338 32 36 75 56 135 62 33 3 56 10 59 19 4 11 -9 13 -65 9 -83 -4
-137 -34 -180 -100 -25 -37 -28 -50 -28 -128 0 -78 3 -91 28 -128 43 -65 97
-96 178 -100 38 -2 82 1 99 6 25 9 30 8 30 -4 0 -21 -43 -34 -114 -34 -148 0
-256 110 -256 260 0 107 49 188 142 234 62 31 155 35 218 10z m163 -352 c42
-67 47 -107 16 -146 -27 -34 -82 -36 -116 -4 -35 33 -30 80 15 150 20 32 39
58 42 58 3 0 22 -26 43 -58z"/>
</g>
</svg>
