<?xml version="1.0" standalone="no"?>
<!DOCTYPE svg PUBLIC "-//W3C//DTD SVG 20010904//EN"
 "http://www.w3.org/TR/2001/REC-SVG-20010904/DTD/svg10.dtd">
<svg version="1.0" xmlns="http://www.w3.org/2000/svg"
 width="50.000000pt" height="50.000000pt" viewBox="0 0 50.000000 50.000000"
 preserveAspectRatio="xMidYMid meet">
<metadata>
Created by potrace 1.15, written by Peter Selinger 2001-2017
</metadata>
<g transform="translate(0.000000,50.000000) scale(0.100000,-0.100000)"
fill="#000000" stroke="none">
<path d="M155 410 c-50 -51 -65 -60 -95 -60 -57 0 -61 -7 -58 -101 l3 -84 45
-3 c40 -3 52 -10 111 -69 104 -102 104 -102 104 157 l0 215 -25 3 c-19 2 -39
-11 -85 -58z m85 -162 l0 -193 -70 71 c-69 71 -70 72 -70 125 0 53 1 55 67
121 37 38 69 68 70 68 2 0 3 -87 3 -192z"/>
</g>
</svg>
