<?xml version="1.0" standalone="no"?>
<!DOCTYPE svg PUBLIC "-//W3C//DTD SVG 20010904//EN"
 "http://www.w3.org/TR/2001/REC-SVG-20010904/DTD/svg10.dtd">
<svg version="1.0" xmlns="http://www.w3.org/2000/svg"
 width="64.000000pt" height="64.000000pt" viewBox="0 0 64.000000 64.000000"
 preserveAspectRatio="xMidYMid meet">
<metadata>
Created by potrace 1.15, written by Peter Selinger 2001-2017
</metadata>
<g transform="translate(0.000000,64.000000) scale(0.100000,-0.100000)"
fill="#000000" stroke="none">
<path d="M260 620 c-16 -16 -20 -33 -20 -94 l0 -74 -36 -22 c-23 -15 -58 -24
-100 -28 -63 -5 -64 -5 -64 -34 l0 -29 83 3 c45 2 90 7 100 12 15 7 17 2 17
-39 0 -39 -6 -54 -31 -83 -29 -33 -31 -39 -27 -99 3 -55 8 -68 36 -95 27 -28
39 -33 97 -36 65 -4 65 -4 105 36 38 38 40 43 40 100 0 54 -4 66 -30 95 -29
34 -30 38 -30 133 l0 99 41 24 c25 14 65 25 100 28 57 6 59 7 59 34 l0 29 -70
0 c-44 0 -82 -6 -100 -15 -29 -15 -30 -15 -30 10 0 38 -33 65 -80 65 -27 0
-47 -7 -60 -20z m145 -412 c38 -45 34 -101 -9 -144 -48 -48 -104 -48 -152 0
-44 44 -47 99 -9 144 14 17 25 35 25 41 0 6 14 11 31 11 38 0 35 24 -4 28 -31
4 -37 22 -7 22 11 0 20 5 20 11 0 6 -9 13 -20 16 -30 8 -24 23 10 23 33 0 39
14 14 28 -13 7 -8 14 28 35 l43 25 3 -105 c2 -96 5 -109 27 -135z"/>
</g>
</svg>
